<svg xmlns="http://www.w3.org/2000/svg" xmlns:xlink="http://www.w3.org/1999/xlink" version="1.1" id="Layer_1" x="0px" y="0px" width="289.161px" height="289.159px" viewBox="0 0 289.161 289.159" enable-background="new 0 0 289.161 289.159" xml:space="preserve">
<g>
	<g>
		<polygon fill="#FFFFFF" points="144.581,66.796 130.321,86.168 158.837,86.168   "/>
        <polygon fill="#FFFFFF" points="102.522,86.168 115.212,106.693 130.321,86.168   "/>
        <polygon fill="#FFFFFF" points="158.837,86.168 173.948,106.693 186.641,86.168   "/>
        <polygon fill="#FFFFFF" points="144.581,86.168 133.916,106.693 155.238,106.693   "/>
        <polygon fill="#FFFFFF" points="94.562,106.693 103.104,123.139 115.212,106.693   "/>
        <polygon fill="#FFFFFF" points="133.916,106.693 115.212,106.693 125.377,123.139   "/>
        <polygon fill="#FFFFFF" points="144.581,106.693 135.807,123.139 153.343,123.139   "/>
        <polygon fill="#FFFFFF" points="155.238,106.693 163.785,123.139 173.948,106.693   "/>
        <polygon fill="#FFFFFF" points="194.597,106.693 173.948,106.693 186.049,123.139   "/>
        <polygon fill="#FFFFFF" points="71.541,123.139 87.327,144.577 103.104,123.139   "/>
        <polygon fill="#FFFFFF" points="135.807,123.139 125.377,123.139 130.977,132.198   "/>
        <polygon fill="#FFFFFF" points="144.581,123.139 140.521,132.198 148.639,132.198   "/>
        <polygon fill="#FFFFFF" points="153.343,123.139 158.18,132.198 163.785,123.139   "/>
        <polygon fill="#FFFFFF" points="201.838,144.577 217.617,123.139 186.049,123.139   "/>
        <polygon fill="#FFFFFF" points="136.512,141.151 140.521,132.198 130.977,132.198   "/>
        <polygon fill="#FFFFFF" points="152.649,141.151 158.18,132.198 148.639,132.198   "/>
        <polygon fill="#FFFFFF" points="126.202,141.151 132.625,149.844 136.512,141.151   "/>
        <polygon fill="#FFFFFF" points="152.649,141.151 156.535,149.844 162.958,141.151   "/>
        <polygon fill="#FFFFFF" points="136.512,141.151 144.581,154.206 152.649,141.151   "/>
        <polygon fill="#FFFFFF" points="120.673,132.198 125.412,142.636 130.977,132.198   "/>
        <polygon fill="#FFFFFF" points="163.749,142.636 168.487,132.198 158.18,132.198   "/>
        <polygon fill="#FFFFFF" points="125.412,142.636 119.24,154.206 130.672,154.206   "/>
        <polygon fill="#FFFFFF" points="163.749,142.636 158.492,154.206 169.917,154.206   "/>
        <polygon fill="#FFFFFF" points="132.625,149.844 130.672,154.206 135.851,154.206   "/>
        <polygon fill="#FFFFFF" points="156.535,149.844 153.316,154.206 158.492,154.206   "/>
        <polygon fill="#FFFFFF" points="103.104,123.139 114.244,144.577 125.377,123.139   "/>
        <polygon fill="#FFFFFF" points="163.785,123.139 174.921,144.577 186.049,123.139   "/>
        <polygon fill="#FFFFFF" points="114.244,144.577 103.104,166.02 125.377,166.02   "/>
        <polygon fill="#FFFFFF" points="174.921,144.577 163.785,166.02 186.049,166.02   "/>
        <polygon fill="#FFFFFF" points="130.672,154.206 125.377,166.02 136.029,166.02   "/>
        <polygon fill="#FFFFFF" points="135.851,154.206 144.581,166.02 153.316,154.206   "/>
        <polygon fill="#FFFFFF" points="158.492,154.206 153.129,166.02 163.785,166.02   "/>
        <polygon fill="#FFFFFF" points="87.327,144.577 71.541,166.02 103.104,166.02   "/>
        <polygon fill="#FFFFFF" points="201.838,144.577 186.049,166.02 217.617,166.02   "/>
        <polygon fill="#FFFFFF" points="103.104,166.02 93.335,184.83 116.952,184.83   "/>
        <polygon fill="#FFFFFF" points="125.377,166.02 116.952,184.83 135.15,184.83   "/>
        <polygon fill="#FFFFFF" points="136.029,166.02 144.581,184.83 153.129,166.02   "/>
        <polygon fill="#FFFFFF" points="163.785,166.02 154.006,184.83 172.207,184.83   "/>
        <polygon fill="#FFFFFF" points="186.049,166.02 172.207,184.83 195.822,184.83   "/>
        <polygon fill="#FFFFFF" points="116.952,184.83 108.823,202.995 130.321,202.995   "/>
        <polygon fill="#FFFFFF" points="135.15,184.83 144.581,202.995 154.006,184.83   "/>
        <polygon fill="#FFFFFF" points="172.207,184.83 158.837,202.995 180.338,202.995   "/>
        <polygon fill="#FFFFFF" points="130.321,202.995 144.581,222.363 158.837,202.995   "/>
	</g>
    <g>
		<path fill="#FFFFFF" d="M41.878,179.83l10.853-3.999c0.212-0.077,0.414-0.044,0.607,0.1c0.192,0.146,0.335,0.345,0.429,0.601    l2.151,5.836c0.081,0.225,0.051,0.425-0.091,0.604c-0.143,0.18-0.343,0.316-0.6,0.41c-0.267,0.098-0.517,0.126-0.75,0.078    c-0.232-0.049-0.389-0.18-0.467-0.391l-1.699-4.614l-3.344,1.232l0.941,2.558c0.078,0.212,0.057,0.407-0.069,0.586    c-0.123,0.179-0.308,0.313-0.552,0.403c-0.224,0.083-0.441,0.096-0.65,0.041c-0.21-0.056-0.355-0.19-0.433-0.401l-0.943-2.558    l-4.58,1.688c-0.212,0.077-0.42,0.031-0.623-0.142c-0.203-0.172-0.356-0.402-0.464-0.693c-0.11-0.302-0.145-0.578-0.1-0.836    C41.538,180.075,41.667,179.909,41.878,179.83z"/>
        <path fill="#FFFFFF" d="M56.959,203.559l4.034-2.908c1.147-0.827,2.205-1.123,3.177-0.894c0.97,0.23,1.828,0.86,2.571,1.893    c0.743,1.03,1.072,2.045,0.987,3.044c-0.084,0.998-0.703,1.912-1.848,2.738l-4.034,2.907c-1.147,0.827-2.208,1.122-3.185,0.886    c-0.975-0.233-1.832-0.867-2.575-1.897c-0.743-1.032-1.07-2.043-0.981-3.038C55.195,205.296,55.812,204.386,56.959,203.559z     M58.315,205.438c-1.11,0.8-1.303,1.699-0.58,2.701c0.729,1.014,1.648,1.118,2.756,0.32l4.033-2.907    c1.11-0.798,1.299-1.704,0.569-2.716c-0.723-1-1.637-1.104-2.746-0.306L58.315,205.438z"/>
        <path fill="#FFFFFF" d="M76.276,225.387l5.155-6.556c0.147-0.187,0.348-0.257,0.596-0.21c0.252,0.046,0.503,0.167,0.755,0.366    c0.252,0.197,0.431,0.413,0.533,0.646c0.106,0.232,0.084,0.442-0.063,0.63l-5.156,6.555c-0.844,1.074-0.753,2.014,0.272,2.822    c1.029,0.807,1.963,0.676,2.809-0.399l5.157-6.554c0.146-0.187,0.346-0.257,0.596-0.212c0.25,0.048,0.502,0.169,0.754,0.368    c0.253,0.197,0.43,0.414,0.536,0.646c0.102,0.232,0.082,0.442-0.066,0.63l-5.156,6.554c-0.868,1.103-1.81,1.672-2.828,1.708    c-1.021,0.037-2.038-0.344-3.057-1.146c-1.018-0.8-1.63-1.697-1.839-2.692C75.068,227.55,75.401,226.498,76.276,225.387z"/>
        <path fill="#FFFFFF" d="M99.953,244.265l4.349-10.716c0.089-0.22,0.263-0.345,0.52-0.376c0.255-0.031,0.532,0.015,0.828,0.135    c0.396,0.162,0.671,0.355,0.821,0.584c0.151,0.229,0.257,0.63,0.319,1.206l0.686,7.451l2.695-6.637    c0.091-0.219,0.261-0.343,0.515-0.368c0.254-0.025,0.529,0.022,0.827,0.144c0.295,0.12,0.528,0.278,0.692,0.474    c0.164,0.193,0.202,0.401,0.112,0.621l-4.357,10.732c-0.084,0.21-0.258,0.332-0.522,0.366c-0.263,0.033-0.54-0.009-0.825-0.123    c-0.584-0.237-0.904-0.632-0.965-1.181l-0.853-8.08l-2.696,6.639c-0.086,0.208-0.258,0.332-0.523,0.365    c-0.262,0.033-0.539-0.008-0.825-0.125c-0.297-0.12-0.526-0.282-0.686-0.488C99.905,244.681,99.868,244.473,99.953,244.265z"/>
        <path fill="#FFFFFF" d="M129.297,252.814l1.191-11.539c0.02-0.188,0.131-0.345,0.335-0.467c0.203-0.121,0.454-0.167,0.749-0.138    l3.138,0.324c1.263,0.131,2.24,0.56,2.93,1.29c0.689,0.728,0.961,1.794,0.816,3.2l-0.5,4.838    c-0.145,1.408-0.631,2.396-1.453,2.969c-0.823,0.571-1.869,0.79-3.132,0.661l-3.138-0.324c-0.294-0.031-0.531-0.129-0.704-0.289    C129.354,253.179,129.277,253.004,129.297,252.814z M131.736,251.74l1.844,0.191c1.24,0.128,1.931-0.488,2.072-1.846l0.5-4.839    c0.141-1.359-0.41-2.102-1.651-2.232l-1.844-0.19L131.736,251.74z"/>
        <path fill="#FFFFFF" d="M158.176,252.759c-0.004-0.026-0.002-0.091,0.004-0.194l1.444-11.635c0.033-0.234,0.171-0.437,0.428-0.606    c0.252-0.169,0.555-0.283,0.906-0.347c0.352-0.061,0.68-0.049,0.983,0.035c0.305,0.085,0.513,0.245,0.627,0.478l5.332,10.443    c0.039,0.088,0.061,0.146,0.066,0.168c0.044,0.26-0.073,0.508-0.357,0.751c-0.283,0.241-0.59,0.393-0.914,0.452    c-0.435,0.075-0.719-0.032-0.853-0.321l-1.08-2.218l-3.759,0.663l-0.243,2.45c-0.04,0.319-0.304,0.523-0.788,0.608    c-0.386,0.066-0.767,0.035-1.15-0.098C158.444,253.256,158.228,253.046,158.176,252.759z M161.191,248.548l3.032-0.534    l-2.475-5.118L161.191,248.548z"/>
        <path fill="#FFFFFF" d="M181.621,235.277c-0.111-0.241-0.153-0.48-0.128-0.716c0.028-0.236,0.151-0.406,0.365-0.505l6.83-3.188    c0.216-0.102,0.424-0.085,0.621,0.044c0.199,0.133,0.355,0.316,0.468,0.559c0.118,0.252,0.16,0.497,0.125,0.736    c-0.031,0.239-0.148,0.405-0.355,0.501l-2.356,1.101l4.341,9.297c0.095,0.205,0.064,0.418-0.088,0.634    c-0.153,0.218-0.372,0.393-0.652,0.521c-0.289,0.137-0.567,0.191-0.827,0.168c-0.258-0.022-0.438-0.139-0.533-0.343l-4.339-9.299    l-2.375,1.108c-0.202,0.095-0.407,0.081-0.607-0.042C181.906,235.732,181.744,235.539,181.621,235.277z"/>
        <path fill="#FFFFFF" d="M212.031,230.25l-7.316-8.977c-0.151-0.186-0.176-0.394-0.076-0.63c0.102-0.232,0.273-0.453,0.523-0.654    c0.247-0.202,0.499-0.329,0.75-0.381c0.247-0.05,0.448,0.017,0.599,0.2l7.318,8.98c0.144,0.174,0.162,0.384,0.068,0.632    c-0.1,0.249-0.266,0.471-0.505,0.666c-0.251,0.202-0.505,0.324-0.761,0.364C212.374,230.495,212.174,230.428,212.031,230.25z"/>
        <path fill="#FFFFFF" d="M226.397,211.454l-3.971-2.99c-1.13-0.85-1.729-1.772-1.799-2.768c-0.066-0.995,0.28-2.001,1.045-3.018    c0.765-1.016,1.638-1.631,2.616-1.845c0.979-0.216,2.034,0.104,3.164,0.953l3.972,2.99c1.128,0.85,1.725,1.774,1.789,2.774    c0.066,1.001-0.281,2.011-1.046,3.023c-0.767,1.018-1.635,1.629-2.611,1.839C228.582,212.624,227.528,212.303,226.397,211.454z     M227.792,209.602c1.091,0.822,2.008,0.739,2.751-0.249c0.75-0.996,0.582-1.905-0.511-2.727l-3.975-2.988    c-1.091-0.822-2.008-0.733-2.764,0.262c-0.74,0.987-0.565,1.892,0.527,2.714L227.792,209.602z"/>
        <path fill="#FFFFFF" d="M244.444,187.606l-10.826-4.066c-0.224-0.082-0.354-0.252-0.389-0.508c-0.037-0.255,0-0.532,0.113-0.833    c0.147-0.399,0.336-0.68,0.561-0.837c0.225-0.156,0.623-0.272,1.195-0.35l7.434-0.881l-6.707-2.521    c-0.222-0.083-0.351-0.251-0.382-0.503c-0.031-0.254,0.008-0.53,0.122-0.831c0.114-0.3,0.266-0.534,0.455-0.704    c0.191-0.169,0.396-0.213,0.621-0.131l10.841,4.072c0.212,0.081,0.337,0.251,0.38,0.514c0.04,0.264,0.007,0.54-0.104,0.829    c-0.221,0.588-0.604,0.922-1.153,0.993l-8.054,1.069l6.707,2.517c0.21,0.081,0.337,0.251,0.379,0.516    c0.041,0.262,0.006,0.538-0.101,0.827c-0.114,0.301-0.271,0.533-0.474,0.698C244.862,187.641,244.656,187.686,244.444,187.606z"/>
	</g>
    <g>
		<path fill="#FFFFFF" d="M49.017,117.864c-0.26-0.086-0.488-0.273-0.687-0.557c-0.199-0.287-0.257-0.554-0.175-0.801    c0.051-0.146,0.175-0.29,0.376-0.429c0.205-0.138,0.418-0.266,0.647-0.385c0.229-0.118,0.467-0.316,0.716-0.596    c0.251-0.28,0.441-0.617,0.574-1.011c0.18-0.542,0.207-1.034,0.08-1.477c-0.129-0.444-0.434-0.748-0.916-0.91    c-0.341-0.112-0.675-0.113-1.004-0.005c-0.332,0.109-0.638,0.295-0.919,0.557c-0.283,0.264-0.569,0.559-0.861,0.888    c-0.291,0.327-0.603,0.651-0.935,0.973c-0.334,0.32-0.679,0.599-1.042,0.836c-0.359,0.235-0.784,0.382-1.273,0.438    c-0.487,0.056-1.002-0.006-1.543-0.187c-0.606-0.204-1.101-0.502-1.484-0.899c-0.381-0.397-0.633-0.841-0.755-1.333    c-0.121-0.492-0.166-0.988-0.13-1.49c0.034-0.502,0.138-1.012,0.313-1.531c0.097-0.293,0.221-0.595,0.37-0.908    c0.15-0.313,0.333-0.639,0.548-0.973c0.215-0.335,0.459-0.586,0.732-0.75c0.273-0.166,0.544-0.204,0.81-0.115    c0.25,0.084,0.485,0.25,0.701,0.498c0.214,0.247,0.277,0.506,0.186,0.776c-0.034,0.102-0.231,0.342-0.597,0.721    c-0.366,0.379-0.641,0.846-0.825,1.397c-0.203,0.609-0.247,1.116-0.125,1.526c0.121,0.41,0.383,0.683,0.79,0.818    c0.324,0.109,0.656,0.068,0.987-0.121c0.335-0.189,0.643-0.459,0.93-0.808c0.284-0.349,0.619-0.719,1.009-1.109    c0.387-0.39,0.782-0.74,1.187-1.05c0.405-0.31,0.907-0.513,1.51-0.613c0.603-0.099,1.248-0.033,1.938,0.196    c1.153,0.386,1.923,1.054,2.306,2.002c0.378,0.948,0.369,2.024-0.034,3.23c-0.358,1.07-0.884,1.916-1.58,2.534    C50.141,117.814,49.534,118.037,49.017,117.864z"/>
        <path fill="#FFFFFF" d="M60.34,94.397c-0.021-0.015-0.067-0.06-0.136-0.138l-7.318-9.16c-0.145-0.186-0.191-0.427-0.135-0.728    c0.057-0.299,0.186-0.598,0.386-0.892c0.2-0.295,0.438-0.521,0.712-0.679c0.274-0.158,0.532-0.197,0.78-0.115l11.197,3.476    c0.09,0.034,0.147,0.059,0.167,0.072c0.216,0.146,0.311,0.406,0.288,0.778c-0.023,0.372-0.131,0.696-0.317,0.97    c-0.248,0.363-0.523,0.492-0.825,0.387l-2.339-0.776l-2.153,3.153l1.585,1.885c0.201,0.251,0.161,0.582-0.117,0.991    c-0.22,0.321-0.509,0.571-0.873,0.752C60.883,94.554,60.582,94.562,60.34,94.397z M59.433,89.301l1.736-2.545l-5.392-1.802    L59.433,89.301z"/>
        <path fill="#FFFFFF" d="M78.805,72.61l-7.366-8.916c-0.148-0.182-0.18-0.394-0.086-0.634c0.095-0.239,0.266-0.461,0.514-0.666    c0.33-0.272,0.63-0.421,0.903-0.446c0.272-0.025,0.676,0.072,1.213,0.292l6.887,2.934l-4.565-5.522    c-0.151-0.184-0.178-0.393-0.08-0.628c0.098-0.235,0.272-0.455,0.516-0.659c0.25-0.205,0.498-0.333,0.748-0.385    c0.249-0.052,0.451,0.014,0.603,0.197l7.376,8.929c0.143,0.174,0.167,0.385,0.074,0.633c-0.096,0.249-0.264,0.471-0.501,0.668    c-0.486,0.401-0.985,0.499-1.496,0.289l-7.517-3.083l4.563,5.522c0.143,0.174,0.167,0.385,0.072,0.633    c-0.094,0.249-0.263,0.472-0.498,0.667c-0.249,0.205-0.499,0.328-0.758,0.372C79.15,72.85,78.949,72.785,78.805,72.61z"/>
        <path fill="#FFFFFF" d="M96.584,47.086c-0.105-0.244-0.143-0.483-0.11-0.72c0.033-0.235,0.158-0.401,0.376-0.497l6.898-3.034    c0.219-0.095,0.426-0.075,0.621,0.061c0.195,0.134,0.346,0.324,0.454,0.566c0.112,0.255,0.148,0.501,0.11,0.739    c-0.038,0.24-0.159,0.404-0.367,0.494l-2.382,1.046l4.132,9.393c0.09,0.207,0.056,0.418-0.103,0.632    c-0.16,0.214-0.381,0.382-0.663,0.506c-0.295,0.13-0.572,0.181-0.831,0.151c-0.259-0.03-0.435-0.148-0.525-0.355l-4.132-9.393    l-2.396,1.054c-0.208,0.091-0.411,0.073-0.607-0.056C96.86,47.549,96.702,47.352,96.584,47.086z"/>
        <path fill="#FFFFFF" d="M124.884,48.905c-0.004-0.026-0.002-0.09,0.007-0.194l1.749-11.593c0.037-0.233,0.183-0.43,0.442-0.593    c0.258-0.163,0.564-0.271,0.917-0.324c0.352-0.053,0.681-0.032,0.98,0.06c0.303,0.093,0.507,0.258,0.617,0.495l5.054,10.577    c0.037,0.091,0.059,0.148,0.062,0.17c0.041,0.26-0.086,0.506-0.375,0.741c-0.289,0.236-0.599,0.378-0.929,0.427    c-0.434,0.065-0.714-0.049-0.844-0.343l-1.019-2.243l-3.777,0.564l-0.305,2.444c-0.047,0.317-0.316,0.513-0.806,0.587    c-0.384,0.057-0.764,0.015-1.143-0.129C125.136,49.409,124.926,49.193,124.884,48.905z M128.003,44.776l3.05-0.455l-2.343-5.181    L128.003,44.776z"/>
        <path fill="#FFFFFF" d="M153.364,47.622l1.625-11.468c0.035-0.235,0.17-0.396,0.411-0.482c0.239-0.085,0.52-0.106,0.836-0.062    c0.319,0.045,0.581,0.143,0.787,0.292c0.208,0.148,0.291,0.341,0.26,0.577l-0.652,4.604l3.969,0.564l0.654-4.606    c0.033-0.234,0.168-0.394,0.409-0.482c0.239-0.085,0.52-0.106,0.836-0.061c0.319,0.044,0.581,0.143,0.787,0.29    c0.208,0.151,0.293,0.343,0.26,0.578l-1.625,11.468c-0.031,0.224-0.172,0.385-0.418,0.482c-0.249,0.097-0.525,0.123-0.831,0.08    c-0.317-0.045-0.581-0.148-0.783-0.31c-0.206-0.16-0.293-0.354-0.262-0.577l0.719-5.064l-3.969-0.562l-0.719,5.062    c-0.033,0.224-0.172,0.384-0.42,0.481c-0.247,0.097-0.523,0.124-0.831,0.081c-0.315-0.046-0.577-0.147-0.783-0.309    S153.333,47.845,153.364,47.622z"/>
        <path fill="#FFFFFF" d="M180.524,54.057l4.617-10.604c0.089-0.207,0.253-0.328,0.49-0.369c0.237-0.039,0.48-0.005,0.731,0.104    l5.816,2.533c0.218,0.095,0.345,0.261,0.38,0.495c0.029,0.235-0.004,0.473-0.108,0.712c-0.116,0.262-0.271,0.459-0.472,0.592    c-0.199,0.133-0.404,0.155-0.61,0.064l-4.624-2.013l-1.423,3.269l2.483,1.08c0.207,0.091,0.334,0.247,0.38,0.468    c0.048,0.22,0.021,0.444-0.081,0.674c-0.089,0.207-0.229,0.37-0.415,0.487c-0.188,0.12-0.392,0.133-0.607,0.037l-2.483-1.081    l-1.43,3.285l4.62,2.013c0.208,0.089,0.334,0.254,0.369,0.492c0.04,0.236,0.003,0.486-0.11,0.748    c-0.102,0.239-0.255,0.427-0.45,0.562c-0.193,0.136-0.399,0.157-0.617,0.062l-5.816-2.534c-0.253-0.108-0.442-0.263-0.577-0.464    C180.454,54.467,180.434,54.264,180.524,54.057z"/>
        <path fill="#FFFFFF" d="M203.676,66.977l7.341-8.96c0.12-0.146,0.282-0.23,0.482-0.251c0.201-0.019,0.384,0.038,0.55,0.174    l2.729,2.236c2.178,1.785,2.479,3.637,0.904,5.557c-0.615,0.753-1.276,1.226-1.979,1.418c-0.704,0.193-1.396,0.146-2.084-0.141    l-0.939,4.829c0.002,0.092-0.035,0.185-0.112,0.276c-0.188,0.229-0.483,0.345-0.883,0.347s-0.735-0.106-1-0.324    c-0.268-0.219-0.357-0.53-0.271-0.936l1.159-5.409l-1.157-0.948l-2.948,3.597c-0.142,0.176-0.341,0.242-0.601,0.199    c-0.256-0.042-0.508-0.164-0.759-0.368c-0.237-0.196-0.403-0.417-0.501-0.665C203.509,67.363,203.535,67.151,203.676,66.977z     M209.569,63.441l1.515,1.242c0.985,0.806,1.876,0.721,2.672-0.252c0.807-0.982,0.719-1.877-0.266-2.684l-1.515-1.243    L209.569,63.441z"/>
        <path fill="#FFFFFF" d="M222.95,86.247l9.507-6.613c0.187-0.131,0.391-0.149,0.613-0.058c0.225,0.091,0.413,0.25,0.565,0.473    l1.967,2.823c1.363,1.961,1.188,3.538-0.529,4.731c-1.19,0.828-2.252,0.953-3.189,0.374c0.151,0.634,0.135,1.201-0.044,1.703    c-0.181,0.501-0.612,0.989-1.294,1.464l-0.308,0.214c-1.081,0.753-2.052,1.037-2.911,0.853c-0.858-0.184-1.601-0.724-2.224-1.621    l-2.157-3.101c-0.17-0.245-0.251-0.485-0.243-0.724C222.713,86.528,222.794,86.355,222.95,86.247z M225.346,87.381l1.149,1.653    c0.658,0.946,1.519,1.049,2.58,0.309l0.233-0.163c0.548-0.379,0.859-0.774,0.937-1.183c0.079-0.407-0.044-0.847-0.368-1.314    l-1.154-1.653L225.346,87.381z M230.218,83.992l1.139,1.638c0.265,0.38,0.578,0.592,0.941,0.636    c0.362,0.044,0.738-0.069,1.129-0.341c0.382-0.265,0.608-0.579,0.682-0.94c0.074-0.363-0.019-0.729-0.276-1.1l-1.131-1.624    L230.218,83.992z"/>
        <path fill="#FFFFFF" d="M236.088,108.65c0.025-0.009,0.086-0.019,0.193-0.028l11.716-0.38c0.236-0.005,0.457,0.104,0.665,0.328    c0.209,0.224,0.369,0.505,0.483,0.841c0.116,0.338,0.154,0.664,0.119,0.978c-0.038,0.313-0.163,0.543-0.375,0.692l-9.487,6.89    c-0.081,0.053-0.133,0.085-0.155,0.091c-0.248,0.084-0.514,0.007-0.798-0.235c-0.281-0.242-0.479-0.521-0.587-0.835    c-0.143-0.416-0.081-0.713,0.182-0.891l2.025-1.411l-1.242-3.612l-2.456,0.142c-0.324,0.012-0.562-0.216-0.724-0.686    c-0.126-0.367-0.153-0.75-0.081-1.147C235.638,108.991,235.81,108.745,236.088,108.65z M240.714,110.972l0.999,2.914l4.672-3.24    L240.714,110.972z"/>
	</g>
    <path fill="#FFFFFF" d="M144.581,8.189C69.376,8.189,8.189,69.374,8.189,144.579c0,75.205,61.187,136.391,136.391,136.391   c75.207,0,136.391-61.186,136.391-136.391C280.971,69.374,219.788,8.189,144.581,8.189z M144.581,270.653   c-69.627,0-126.072-56.444-126.072-126.074c0-69.628,56.445-126.075,126.072-126.075c69.626,0,126.074,56.446,126.074,126.075   C270.655,214.208,214.207,270.653,144.581,270.653z"/>
    <path fill="#FFFFFF" d="M246.461,144.317c0.14,0.937-0.496,1.815-1.438,1.961c-0.938,0.146-1.814-0.498-1.96-1.436   c-0.142-0.938,0.499-1.814,1.435-1.959C245.437,142.737,246.312,143.379,246.461,144.317z"/>
    <path fill="#FFFFFF" d="M46.096,144.836c-0.145,0.938-1.018,1.581-1.959,1.438c-0.938-0.142-1.58-1.018-1.436-1.955   c0.142-0.94,1.018-1.582,1.956-1.439C45.598,143.024,46.24,143.897,46.096,144.836z"/>
</g>
</svg>