<svg xmlns="http://www.w3.org/2000/svg" xmlns:xlink="http://www.w3.org/1999/xlink" version="1.1" id="Layer_1" x="0px" y="0px" width="626.275px" height="151.442px" viewBox="0 0 626.275 151.442" enable-background="new 0 0 626.275 151.442" xml:space="preserve"><g>	<g>		<polygon fill="white" points="75.717,16.454 64.858,31.211 86.58,31.211   "/>		<polygon fill="white" points="43.671,31.211 53.345,46.851 64.858,31.211   "/>		<polygon fill="white" points="86.58,31.211 98.099,46.851 107.764,31.211   "/>		<polygon fill="white" points="75.717,31.211 67.598,46.851 83.84,46.851   "/>		<polygon fill="white" points="37.61,46.851 44.118,59.386 53.345,46.851   "/>		<polygon fill="white" points="67.598,46.851 53.345,46.851 61.086,59.386   "/>		<polygon fill="white" points="75.717,46.851 69.028,59.386 82.394,59.386   "/>		<polygon fill="white" points="83.84,46.851 90.354,59.386 98.099,46.851   "/>		<polygon fill="white" points="113.826,46.851 98.099,46.851 107.314,59.386   "/>		<polygon fill="white" points="20.066,59.386 32.098,75.713 44.118,59.386   "/>		<polygon fill="white" points="69.028,59.386 61.086,59.386 65.357,66.283   "/>		<polygon fill="white" points="75.717,59.386 72.629,66.283 78.813,66.283   "/>		<polygon fill="white" points="82.394,59.386 86.078,66.283 90.354,59.386   "/>		<polygon fill="white" points="119.343,75.713 131.373,59.386 107.314,59.386   "/>		<polygon fill="white" points="69.571,73.108 72.629,66.283 65.357,66.283   "/>		<polygon fill="white" points="81.867,73.108 86.078,66.283 78.813,66.283   "/>		<polygon fill="white" points="61.717,73.108 66.61,79.729 69.571,73.108   "/>		<polygon fill="white" points="81.867,73.108 84.826,79.729 89.718,73.108   "/>		<polygon fill="white" points="69.571,73.108 75.717,83.053 81.867,73.108   "/>		<polygon fill="white" points="57.5,66.283 61.116,74.238 65.357,66.283   "/>		<polygon fill="white" points="90.321,74.238 93.932,66.283 86.078,66.283   "/>		<polygon fill="white" points="61.116,74.238 56.412,83.053 65.123,83.053   "/>		<polygon fill="white" points="90.321,74.238 86.318,83.053 95.024,83.053   "/>		<polygon fill="white" points="66.61,79.729 65.123,83.053 69.063,83.053   "/>		<polygon fill="white" points="84.826,79.729 82.378,83.053 86.318,83.053   "/>		<polygon fill="white" points="44.118,59.386 52.61,75.713 61.086,59.386   "/>		<polygon fill="white" points="90.354,59.386 98.838,75.713 107.314,59.386   "/>		<polygon fill="white" points="52.61,75.713 44.118,92.055 61.086,92.055   "/>		<polygon fill="white" points="98.838,75.713 90.354,92.055 107.314,92.055   "/>		<polygon fill="white" points="65.123,83.053 61.086,92.055 69.205,92.055   "/>		<polygon fill="white" points="69.063,83.053 75.717,92.055 82.378,83.053   "/>		<polygon fill="white" points="86.318,83.053 82.23,92.055 90.354,92.055   "/>		<polygon fill="white" points="32.098,75.713 20.066,92.055 44.118,92.055   "/>		<polygon fill="white" points="119.343,75.713 107.314,92.055 131.373,92.055   "/>		<polygon fill="white" points="44.118,92.055 36.676,106.39 54.665,106.39   "/>		<polygon fill="white" points="61.086,92.055 54.665,106.39 68.537,106.39   "/>		<polygon fill="white" points="69.205,92.055 75.717,106.39 82.23,92.055   "/>		<polygon fill="white" points="90.354,92.055 82.901,106.39 96.767,106.39   "/>		<polygon fill="white" points="107.314,92.055 96.767,106.39 114.764,106.39   "/>		<polygon fill="white" points="54.665,106.39 48.471,120.226 64.858,120.226   "/>		<polygon fill="white" points="68.537,106.39 75.717,120.226 82.901,106.39   "/>		<polygon fill="white" points="96.767,106.39 86.58,120.226 102.964,120.226   "/>		<polygon fill="white" points="64.858,120.226 75.717,134.985 86.58,120.226   "/>	</g>	<path fill="white" d="M75.717,0C33.967,0,0,33.965,0,75.72c0,41.75,33.967,75.722,75.717,75.722   c41.757,0,75.724-33.973,75.724-75.722C151.441,33.965,117.474,0,75.717,0z M75.717,145.709c-38.653,0-69.986-31.333-69.986-69.99   c0-38.655,31.333-69.997,69.986-69.997c38.663,0,69.993,31.342,69.993,69.997C145.71,114.376,114.379,145.709,75.717,145.709z"/></g>	<g>	<g>		<path fill="white" d="M186.17,115.042V86.62c0-0.688,0.298-1.216,0.895-1.59c0.597-0.372,1.313-0.561,2.149-0.561h15.533    c0.686,0,1.208,0.299,1.566,0.896c0.358,0.597,0.537,1.297,0.537,2.104c0,0.865-0.186,1.595-0.56,2.191    c-0.374,0.599-0.888,0.896-1.544,0.896h-11.594v7.565h6.759c0.657,0,1.171,0.269,1.545,0.806c0.373,0.537,0.56,1.179,0.56,1.925    c0,0.687-0.179,1.299-0.537,1.836c-0.358,0.537-0.88,0.805-1.567,0.805h-6.759v11.549c0,0.687-0.343,1.217-1.03,1.59    c-0.687,0.372-1.507,0.559-2.462,0.559c-0.956,0-1.776-0.187-2.461-0.559C186.513,116.259,186.17,115.729,186.17,115.042z"/>		<path fill="white" d="M230.934,106.897V95.035c0-3.641,1-6.312,2.999-8.013c1.999-1.701,4.655-2.553,7.967-2.553    c3.343,0,6.013,0.852,8.013,2.553c2,1.701,2.999,4.372,2.999,8.013v11.862c0,3.641-1,6.311-2.999,8.012    c-2,1.701-4.67,2.552-8.013,2.552c-3.312,0-5.968-0.851-7.967-2.552C231.933,113.208,230.934,110.538,230.934,106.897z     M237.916,106.897c0,2.983,1.328,4.476,3.984,4.476c2.687,0,4.029-1.492,4.029-4.476V95.035c0-2.984-1.343-4.478-4.029-4.478    c-2.656,0-3.984,1.493-3.984,4.478V106.897z"/>		<path fill="white" d="M279.634,106.897V86.575c0-0.688,0.337-1.209,1.008-1.567s1.5-0.538,2.484-0.538    c0.956,0,1.776,0.18,2.462,0.538c0.688,0.358,1.029,0.88,1.029,1.567v20.322c0,2.983,1.432,4.476,4.298,4.476    c2.864,0,4.296-1.492,4.296-4.476V86.575c0-0.688,0.338-1.209,1.008-1.567c0.672-0.358,1.5-0.538,2.484-0.538    c0.956,0,1.776,0.18,2.463,0.538c0.685,0.358,1.029,0.88,1.029,1.567v20.322c0,3.641-1.029,6.311-3.09,8.012    c-2.058,1.701-4.789,2.552-8.19,2.552c-3.432,0-6.171-0.851-8.214-2.552S279.634,110.538,279.634,106.897z"/>		<path fill="white" d="M329.277,115.042V86.62c0-0.688,0.342-1.216,1.029-1.59c0.686-0.372,1.506-0.561,2.462-0.561    c1.341,0,2.333,0.195,2.976,0.583c0.642,0.388,1.365,1.358,2.172,2.908l7.251,13.832V86.575c0-0.688,0.343-1.209,1.028-1.567    c0.688-0.358,1.508-0.538,2.463-0.538c0.954,0,1.774,0.18,2.463,0.538c0.686,0.358,1.028,0.88,1.028,1.567v28.468    c0,0.687-0.343,1.217-1.028,1.59c-0.688,0.372-1.509,0.559-2.463,0.559c-1.909,0-3.207-0.626-3.895-1.879l-8.505-15.489v15.22    c0,0.687-0.343,1.217-1.029,1.59c-0.686,0.372-1.508,0.559-2.461,0.559c-0.956,0-1.776-0.187-2.462-0.559    C329.619,116.259,329.277,115.729,329.277,115.042z"/>		<path fill="white" d="M379.366,115.087V86.575c0-0.566,0.282-1.06,0.851-1.478c0.566-0.418,1.297-0.628,2.192-0.628h7.924    c3.341,0,6.012,0.852,8.012,2.553c1.998,1.701,3,4.372,3,8.013v11.593c0,3.641-1.002,6.312-3,8.013    c-2,1.701-4.671,2.551-8.012,2.551h-7.924c-0.896,0-1.626-0.208-2.192-0.626C379.648,116.147,379.366,115.654,379.366,115.087z     M386.347,111.104h3.985c2.686,0,4.028-1.492,4.028-4.477V95.035c0-2.984-1.343-4.478-4.028-4.478h-3.985V111.104z"/>		<path fill="white" d="M425.917,114.327c0-0.089,0.03-0.253,0.09-0.492l8.326-27.306c0.239-0.745,0.784-1.32,1.635-1.723    s1.826-0.604,2.931-0.604s2.082,0.202,2.934,0.604c0.85,0.402,1.395,0.978,1.632,1.723l8.371,27.306    c0.061,0.239,0.091,0.403,0.091,0.492c0,0.776-0.486,1.448-1.455,2.015c-0.97,0.566-1.979,0.85-3.021,0.85    c-1.284,0-2.045-0.433-2.284-1.298l-1.521-5.595h-9.445l-1.521,5.595c-0.239,0.865-1.001,1.298-2.284,1.298    c-1.045,0-2.051-0.283-3.021-0.85C426.404,115.775,425.917,115.103,425.917,114.327z M435.632,104.926h6.535l-3.269-11.996    L435.632,104.926z"/>		<path fill="white" d="M472.023,87.471c0-0.812,0.18-1.515,0.538-2.109c0.357-0.595,0.878-0.893,1.567-0.893h19.336    c0.687,0,1.208,0.298,1.567,0.893c0.357,0.595,0.536,1.298,0.536,2.109c0,0.869-0.187,1.601-0.56,2.195s-0.887,0.891-1.544,0.891    h-6.177v24.471c0,0.691-0.344,1.225-1.03,1.602c-0.687,0.374-1.507,0.562-2.461,0.562c-0.956,0-1.776-0.188-2.463-0.562    c-0.688-0.377-1.029-0.91-1.029-1.602V90.557h-6.176c-0.659,0-1.172-0.296-1.546-0.891    C472.209,89.072,472.023,88.34,472.023,87.471z"/>		<path fill="white" d="M520.725,115.042V86.575c0-0.688,0.342-1.209,1.029-1.567c0.687-0.358,1.507-0.538,2.463-0.538    c0.953,0,1.774,0.18,2.461,0.538s1.029,0.88,1.029,1.567v28.468c0,0.687-0.343,1.217-1.029,1.59    c-0.687,0.372-1.508,0.559-2.461,0.559c-0.956,0-1.776-0.187-2.463-0.559C521.067,116.259,520.725,115.729,520.725,115.042z"/>		<path fill="white" d="M554.564,106.897V95.035c0-3.641,1-6.312,3-8.013c1.998-1.701,4.655-2.553,7.968-2.553    c3.342,0,6.013,0.852,8.013,2.553c1.999,1.701,2.999,4.372,2.999,8.013v11.862c0,3.641-1,6.311-2.999,8.012    c-2,1.701-4.671,2.552-8.013,2.552c-3.313,0-5.97-0.851-7.968-2.552C555.564,113.208,554.564,110.538,554.564,106.897z     M561.547,106.897c0,2.983,1.328,4.476,3.984,4.476c2.685,0,4.028-1.492,4.028-4.476V95.035c0-2.984-1.344-4.478-4.028-4.478    c-2.656,0-3.984,1.493-3.984,4.478V106.897z"/>		<path fill="white" d="M603.401,115.042V86.62c0-0.688,0.343-1.216,1.029-1.59c0.687-0.372,1.507-0.561,2.463-0.561    c1.342,0,2.334,0.195,2.977,0.583c0.642,0.388,1.365,1.358,2.171,2.908l7.251,13.832V86.575c0-0.688,0.343-1.209,1.029-1.567    s1.507-0.538,2.462-0.538s1.775,0.18,2.463,0.538c0.685,0.358,1.029,0.88,1.029,1.567v28.468c0,0.687-0.345,1.217-1.029,1.59    c-0.688,0.372-1.508,0.559-2.463,0.559c-1.91,0-3.207-0.626-3.894-1.879l-8.506-15.489v15.22c0,0.687-0.343,1.217-1.029,1.59    c-0.687,0.372-1.507,0.559-2.461,0.559c-0.956,0-1.776-0.187-2.463-0.559C603.744,116.259,603.401,115.729,603.401,115.042z"/>	</g>		<g>		<path fill="white" d="M184.657,60.664c0-0.807,0.295-1.614,0.887-2.423c0.59-0.806,1.275-1.21,2.054-1.21    c0.433,0,0.915,0.175,1.449,0.524c0.533,0.35,1.023,0.737,1.47,1.162c0.446,0.427,1.074,0.813,1.881,1.163    c0.806,0.35,1.658,0.524,2.551,0.524c1.125,0,2.105-0.238,2.941-0.713c0.836-0.476,1.254-1.19,1.254-2.141    c0-0.952-0.469-1.787-1.405-2.508c-0.938-0.72-2.076-1.376-3.417-1.968c-1.341-0.591-2.688-1.254-4.043-1.989    c-1.356-0.736-2.502-1.78-3.438-3.135c-0.937-1.355-1.405-2.97-1.405-4.844c0-3.057,1.081-5.34,3.243-6.854    c2.162-1.514,4.771-2.271,7.828-2.271c0.749,0,1.535,0.045,2.356,0.133c0.822,0.09,1.744,0.261,2.768,0.514    s1.86,0.661,2.508,1.225c0.649,0.564,0.973,1.248,0.973,2.049c0,0.762-0.238,1.552-0.713,2.373    c-0.476,0.82-1.132,1.231-1.968,1.231c-0.346,0-1.081-0.274-2.206-0.822c-1.124-0.547-2.364-0.821-3.719-0.821    c-1.442,0-2.523,0.252-3.244,0.756c-0.721,0.505-1.081,1.118-1.081,1.837c0,0.664,0.338,1.269,1.016,1.816    c0.677,0.549,1.521,1.018,2.53,1.407c1.009,0.389,2.111,0.894,3.308,1.513c1.196,0.621,2.299,1.297,3.309,2.033    c1.009,0.735,1.852,1.767,2.53,3.092c0.677,1.327,1.017,2.839,1.017,4.541c0,2.974-0.995,5.287-2.984,6.944    c-1.989,1.656-4.599,2.484-7.828,2.484c-2.796,0-5.232-0.576-7.308-1.73C185.695,63.402,184.657,62.105,184.657,60.664z"/>			<path fill="white" d="M228.68,63.084c0-0.085,0.029-0.244,0.087-0.475l8.043-26.38c0.23-0.72,0.757-1.276,1.579-1.665    c0.821-0.389,1.766-0.584,2.833-0.584c1.066,0,2.011,0.195,2.833,0.584c0.822,0.389,1.347,0.944,1.579,1.665l8.086,26.38    c0.058,0.23,0.087,0.389,0.087,0.475c0,0.75-0.47,1.399-1.406,1.947c-0.937,0.547-1.91,0.821-2.919,0.821    c-1.239,0-1.975-0.418-2.206-1.254l-1.47-5.406h-9.125l-1.47,5.406c-0.231,0.836-0.967,1.254-2.206,1.254    c-1.01,0-1.983-0.274-2.919-0.821C229.148,64.484,228.68,63.835,228.68,63.084z M238.064,54.003h6.314l-3.157-11.59    L238.064,54.003z"/>			<path fill="white" d="M277.937,63.777v-27.46c0-0.663,0.331-1.174,0.994-1.536c0.664-0.36,1.456-0.541,2.379-0.541    c1.297,0,2.255,0.188,2.876,0.563c0.619,0.375,1.319,1.312,2.098,2.81l7.005,13.363V36.273c0-0.663,0.331-1.168,0.994-1.514    s1.456-0.52,2.379-0.52c0.922,0,1.715,0.174,2.38,0.52c0.662,0.346,0.994,0.851,0.994,1.514v27.504    c0,0.664-0.332,1.176-0.994,1.536c-0.665,0.36-1.458,0.54-2.38,0.54c-1.845,0-3.099-0.605-3.763-1.816l-8.217-14.964v14.704    c0,0.664-0.33,1.176-0.994,1.536c-0.663,0.36-1.456,0.54-2.378,0.54c-0.923,0-1.715-0.18-2.379-0.54    C278.268,64.953,277.937,64.44,277.937,63.777z"/>			<path fill="white" d="M324.337,37.139c0-0.784,0.174-1.463,0.52-2.037c0.346-0.575,0.85-0.863,1.514-0.863h18.682    c0.663,0,1.167,0.288,1.514,0.863c0.346,0.574,0.519,1.253,0.519,2.037c0,0.84-0.181,1.547-0.54,2.122    c-0.361,0.574-0.858,0.86-1.492,0.86h-5.968v23.641c0,0.668-0.332,1.183-0.995,1.547c-0.663,0.362-1.456,0.543-2.378,0.543    c-0.923,0-1.716-0.181-2.379-0.543c-0.663-0.364-0.994-0.878-0.994-1.547V40.121h-5.968c-0.636,0-1.132-0.286-1.492-0.86    C324.517,38.686,324.337,37.979,324.337,37.139z"/>			<path fill="white" d="M366.501,63.084c0-0.085,0.029-0.244,0.087-0.475l8.043-26.38c0.231-0.72,0.758-1.276,1.579-1.665    c0.822-0.389,1.766-0.584,2.832-0.584c1.067,0,2.011,0.195,2.834,0.584c0.821,0.389,1.347,0.944,1.577,1.665l8.087,26.38    c0.058,0.23,0.087,0.389,0.087,0.475c0,0.75-0.469,1.399-1.405,1.947c-0.938,0.547-1.911,0.821-2.919,0.821    c-1.241,0-1.976-0.418-2.206-1.254l-1.471-5.406h-9.124l-1.471,5.406c-0.23,0.836-0.967,1.254-2.206,1.254    c-1.009,0-1.981-0.274-2.919-0.821C366.97,64.484,366.501,63.835,366.501,63.084z M375.886,54.003h6.313l-3.157-11.59    L375.886,54.003z"/>			<path fill="white" d="M415.758,63.777V36.273c0-0.663,0.331-1.168,0.994-1.514s1.456-0.52,2.379-0.52    c0.922,0,1.715,0.174,2.378,0.52s0.994,0.851,0.994,1.514v10.595h8.606V36.273c0-0.663,0.331-1.168,0.994-1.514    s1.456-0.52,2.379-0.52c0.922,0,1.715,0.174,2.379,0.52c0.662,0.346,0.994,0.851,0.994,1.514v27.504    c0,0.664-0.332,1.176-0.994,1.536c-0.664,0.36-1.457,0.54-2.379,0.54c-0.923,0-1.716-0.18-2.379-0.54s-0.994-0.872-0.994-1.536    v-11.72h-8.606v11.72c0,0.664-0.331,1.176-0.994,1.536s-1.456,0.54-2.378,0.54c-0.923,0-1.716-0.18-2.379-0.54    S415.758,64.44,415.758,63.777z"/>			<path fill="white" d="M464.15,63.777v-27.46c0-0.663,0.287-1.174,0.864-1.536c0.577-0.36,1.268-0.541,2.076-0.541h15.395    c0.664,0,1.168,0.289,1.515,0.865c0.346,0.577,0.518,1.254,0.518,2.033c0,0.836-0.18,1.542-0.54,2.118    c-0.36,0.577-0.857,0.865-1.492,0.865h-11.59v7.309h6.487c0.634,0,1.132,0.26,1.491,0.779c0.36,0.519,0.542,1.138,0.542,1.859    c0,0.664-0.174,1.254-0.52,1.772c-0.346,0.52-0.851,0.778-1.514,0.778h-6.487v7.352h11.59c0.635,0,1.132,0.289,1.492,0.865    c0.36,0.578,0.54,1.283,0.54,2.12c0,0.778-0.172,1.456-0.518,2.032c-0.347,0.578-0.851,0.865-1.515,0.865H467.09    c-0.809,0-1.499-0.18-2.076-0.54S464.15,64.44,464.15,63.777z"/>			<path fill="white" d="M509.081,63.777V36.273c0-0.547,0.194-1.023,0.584-1.427c0.389-0.403,0.887-0.606,1.491-0.606h8.952    c7.092,0,10.639,3.086,10.639,9.255c0,4.498-1.745,7.424-5.233,8.779l5.276,9.557c0.144,0.202,0.217,0.461,0.217,0.779    c0,0.836-0.455,1.628-1.363,2.377c-0.907,0.75-1.866,1.125-2.876,1.125c-1.009,0-1.729-0.418-2.162-1.254l-5.924-11.503h-2.855    v10.422c0,0.664-0.331,1.176-0.994,1.536s-1.456,0.54-2.378,0.54c-0.923,0-1.716-0.18-2.379-0.54S509.081,64.44,509.081,63.777z     M515.826,48.166h4.282c1.269,0,2.234-0.309,2.897-0.93c0.663-0.62,0.994-1.65,0.994-3.092s-0.331-2.472-0.994-3.092    c-0.663-0.62-1.629-0.931-2.897-0.931h-4.282V48.166z"/>			<path fill="white" d="M555.959,63.82V36.316c0-0.663,0.287-1.174,0.865-1.536c0.576-0.36,1.267-0.541,2.075-0.541h8.865    c5.766,0,8.649,2.567,8.649,7.699c0,3.459-1.227,5.723-3.677,6.789c1.471,0.548,2.581,1.333,3.33,2.357    c0.75,1.023,1.125,2.544,1.125,4.563v0.908c0,3.229-0.786,5.586-2.357,7.071s-3.683,2.227-6.335,2.227H558.9    c-0.894,0-1.608-0.202-2.141-0.605C556.225,64.844,555.959,64.368,555.959,63.82z M562.663,46.132h4.54    c0.778,0,1.384-0.295,1.816-0.886s0.648-1.291,0.648-2.098s-0.216-1.514-0.648-2.119s-1.038-0.909-1.816-0.909h-4.54V46.132z     M562.663,59.971h4.324c2.307,0,3.459-1.326,3.459-3.979v-0.691c0-2.653-1.152-3.979-3.459-3.979h-4.324V59.971z"/>			<path fill="white" d="M600.155,63.084c0-0.085,0.028-0.244,0.087-0.475l8.043-26.38c0.23-0.72,0.758-1.276,1.579-1.665    c0.821-0.389,1.766-0.584,2.832-0.584s2.011,0.195,2.833,0.584c0.822,0.389,1.348,0.944,1.578,1.665l8.087,26.38    c0.058,0.23,0.087,0.389,0.087,0.475c0,0.75-0.469,1.399-1.405,1.947c-0.938,0.547-1.911,0.821-2.919,0.821    c-1.241,0-1.976-0.418-2.206-1.254l-1.471-5.406h-9.124l-1.471,5.406c-0.23,0.836-0.967,1.254-2.206,1.254    c-1.009,0-1.981-0.274-2.919-0.821C600.624,64.484,600.155,63.835,600.155,63.084z M609.539,54.003h6.314l-3.157-11.59    L609.539,54.003z"/>	</g></g></svg>